<svg width="25" height="24" viewBox="0 0 25 24" fill="none" xmlns="http://www.w3.org/2000/svg">
<path fill-rule="evenodd" clip-rule="evenodd" d="M12.62 19.4064C19.1421 19.4064 24.4294 15.2307 24.4294 10.0796C24.4294 4.92864 19.1421 0.75293 12.62 0.75293C6.09781 0.75293 0.810547 4.92864 0.810547 10.0796C0.810547 13.1779 2.72339 15.9233 5.66727 17.6194C5.66659 17.6222 5.66591 17.625 5.66523 17.6277L4.54701 22.1822C4.38048 22.8604 4.29722 23.1996 4.4006 23.375C4.47542 23.5019 4.60241 23.5894 4.74767 23.614C4.9484 23.6481 5.23557 23.4494 5.80992 23.052L10.8553 19.5612C10.9771 19.4769 11.0836 19.4033 11.1753 19.3373C11.6488 19.3829 12.1309 19.4064 12.62 19.4064Z" fill="#181600"/>
</svg>
